<svg width="466" height="466" viewBox="0 0 466 466" fill="none" xmlns="http://www.w3.org/2000/svg">
<rect width="466" height="466" rx="100" fill="#011D2B"/>
<path d="M197.674 326.99L138.586 248.527H122.63V326.99H90.1055V147.445H122.63V221.262H130.784L194.606 147.445H234.67L163.747 229.327L237.739 326.99H197.674Z" fill="#00ADFF"/>
<path d="M259.831 326.99V147.445H327.161C340.954 147.445 352.526 150.017 361.877 155.16C371.287 160.303 378.388 167.375 383.181 176.376C388.032 185.318 390.457 195.488 390.457 206.884C390.457 218.398 388.032 228.626 383.181 237.568C378.33 246.51 371.17 253.553 361.702 258.696C352.234 263.781 340.574 266.323 326.722 266.323H282.099V239.585H322.339C330.404 239.585 337.009 238.182 342.152 235.377C347.295 232.571 351.094 228.714 353.549 223.804C356.062 218.895 357.318 213.255 357.318 206.884C357.318 200.514 356.062 194.903 353.549 190.052C351.094 185.201 347.266 181.431 342.064 178.743C336.921 175.996 330.287 174.622 322.163 174.622H292.356V326.99H259.831Z" fill="#00ADFF"/>
</svg>
